<svg width="29" height="29" viewBox="0 0 29 29" fill="none" xmlns="http://www.w3.org/2000/svg">
<path d="M14.4175 28.5879C15.469 28.5879 16.4775 28.2184 17.221 27.5608C17.9646 26.9032 18.3823 26.0113 18.3823 25.0812H10.4526C10.4526 26.0113 10.8704 26.9032 11.6139 27.5608C12.3575 28.2184 13.3659 28.5879 14.4175 28.5879ZM16.39 2.46164C16.4177 2.21785 16.3872 1.97163 16.3007 1.73887C16.2142 1.50611 16.0735 1.29198 15.8876 1.11028C15.7017 0.92858 15.4749 0.783349 15.2217 0.683953C14.9685 0.584557 14.6945 0.533203 14.4175 0.533203C14.1404 0.533203 13.8665 0.584557 13.6133 0.683953C13.3601 0.783349 13.1332 0.92858 12.9474 1.11028C12.7615 1.29198 12.6208 1.50611 12.5342 1.73887C12.4477 1.97163 12.4173 2.21785 12.445 2.46164C10.2043 2.86473 8.18994 3.94032 6.74306 5.50628C5.29618 7.07225 4.50566 9.03234 4.50537 11.0547C4.50537 12.9798 3.51416 21.5746 0.540527 23.3279H28.2944C25.3208 21.5746 24.3296 12.9798 24.3296 11.0547C24.3296 6.81163 20.9198 3.26992 16.39 2.46164Z" fill="#0A512F"/>
</svg>
