<svg width="49" height="39" viewBox="0 0 49 39" fill="none" xmlns="http://www.w3.org/2000/svg">
<path d="M47.775 15.8438H33.075C32.4012 15.8438 31.85 16.3922 31.85 17.0625V19.5C31.85 20.1703 32.4012 20.7188 33.075 20.7188H47.775C48.4487 20.7188 49 20.1703 49 19.5V17.0625C49 16.3922 48.4487 15.8438 47.775 15.8438ZM17.15 19.5C22.563 19.5 26.95 15.1354 26.95 9.75C26.95 4.36465 22.563 0 17.15 0C11.737 0 7.35 4.36465 7.35 9.75C7.35 15.1354 11.737 19.5 17.15 19.5ZM24.01 21.9375H22.7314C21.0317 22.7145 19.1406 23.1562 17.15 23.1562C15.1594 23.1562 13.2759 22.7145 11.5686 21.9375H10.29C4.60906 21.9375 0 26.523 0 32.175V35.3438C0 37.3623 1.64609 39 3.675 39H30.625C32.6539 39 34.3 37.3623 34.3 35.3438V32.175C34.3 26.523 29.6909 21.9375 24.01 21.9375Z" fill="white"/>
</svg>
