<svg width="61" height="62" viewBox="0 0 61 62" fill="none" xmlns="http://www.w3.org/2000/svg">
<path d="M12.7084 15.5H58.4584V46.5H12.7084V15.5ZM35.5834 23.25C37.6057 23.25 39.5451 24.0665 40.9751 25.5199C42.4051 26.9733 43.2084 28.9446 43.2084 31C43.2084 33.0554 42.4051 35.0267 40.9751 36.4801C39.5451 37.9335 37.6057 38.75 35.5834 38.75C33.5611 38.75 31.6217 37.9335 30.1917 36.4801C28.7618 35.0267 27.9584 33.0554 27.9584 31C27.9584 28.9446 28.7618 26.9733 30.1917 25.5199C31.6217 24.0665 33.5611 23.25 35.5834 23.25ZM22.8751 20.6667C22.8751 22.037 22.3395 23.3511 21.3862 24.3201C20.4329 25.289 19.1399 25.8333 17.7917 25.8333V36.1667C19.1399 36.1667 20.4329 36.711 21.3862 37.68C22.3395 38.6489 22.8751 39.963 22.8751 41.3333H48.2917C48.2917 39.963 48.8273 38.6489 49.7806 37.68C50.7339 36.711 52.0269 36.1667 53.3751 36.1667V25.8333C52.0269 25.8333 50.7339 25.289 49.7806 24.3201C48.8273 23.3511 48.2917 22.037 48.2917 20.6667H22.8751ZM2.54175 25.8333H7.62508V51.6667H48.2917V56.8333H2.54175V25.8333Z" fill="white"/>
</svg>
