<svg width="15" height="10" viewBox="0 0 15 10" fill="none" xmlns="http://www.w3.org/2000/svg">
<path d="M6.19085 9.15734L0.400186 2.54934C-0.2832 1.77185 0.272202 0.550782 1.30935 0.550782H12.8907C13.1228 0.550583 13.3501 0.617184 13.5452 0.74261C13.7404 0.868036 13.8952 1.04697 13.9912 1.25798C14.0871 1.46899 14.1201 1.70314 14.0862 1.93238C14.0522 2.16163 13.9528 2.37625 13.7999 2.55054L8.00919 9.15614C7.89586 9.28561 7.7561 9.38938 7.59929 9.46048C7.44248 9.53157 7.27225 9.56836 7.10002 9.56836C6.9278 9.56836 6.75756 9.53157 6.60075 9.46048C6.44394 9.38938 6.30418 9.28561 6.19085 9.15614V9.15734Z" fill="#0A512F"/>
</svg>
