<svg width="31" height="29" viewBox="0 0 31 29" fill="none" xmlns="http://www.w3.org/2000/svg">
<path d="M30.6671 13.6856C30.6671 20.9495 23.9758 26.8381 15.7227 26.8381C14.2426 26.8401 12.7686 26.6468 11.3384 26.2631C10.2475 26.8193 7.74241 27.8865 3.52809 28.5817C3.15448 28.6418 2.87054 28.251 3.01811 27.9016C3.6794 26.3308 4.27718 24.2377 4.45651 22.3287C2.16815 20.0176 0.77832 16.9925 0.77832 13.6856C0.77832 6.42174 7.46967 0.533203 15.7227 0.533203C23.9758 0.533203 30.6671 6.42174 30.6671 13.6856ZM10.1186 13.6856C10.1186 13.1873 9.92176 12.7094 9.57143 12.357C9.2211 12.0047 8.74596 11.8067 8.25052 11.8067C7.75508 11.8067 7.27994 12.0047 6.92961 12.357C6.57928 12.7094 6.38247 13.1873 6.38247 13.6856C6.38247 14.184 6.57928 14.6619 6.92961 15.0142C7.27994 15.3666 7.75508 15.5646 8.25052 15.5646C8.74596 15.5646 9.2211 15.3666 9.57143 15.0142C9.92176 14.6619 10.1186 14.184 10.1186 13.6856ZM17.5908 13.6856C17.5908 13.1873 17.394 12.7094 17.0436 12.357C16.6933 12.0047 16.2182 11.8067 15.7227 11.8067C15.2273 11.8067 14.7521 12.0047 14.4018 12.357C14.0515 12.7094 13.8547 13.1873 13.8547 13.6856C13.8547 14.184 14.0515 14.6619 14.4018 15.0142C14.7521 15.3666 15.2273 15.5646 15.7227 15.5646C16.2182 15.5646 16.6933 15.3666 17.0436 15.0142C17.394 14.6619 17.5908 14.184 17.5908 13.6856ZM23.1949 15.5646C23.6904 15.5646 24.1655 15.3666 24.5158 15.0142C24.8662 14.6619 25.063 14.184 25.063 13.6856C25.063 13.1873 24.8662 12.7094 24.5158 12.357C24.1655 12.0047 23.6904 11.8067 23.1949 11.8067C22.6995 11.8067 22.2243 12.0047 21.874 12.357C21.5237 12.7094 21.3269 13.1873 21.3269 13.6856C21.3269 14.184 21.5237 14.6619 21.874 15.0142C22.2243 15.3666 22.6995 15.5646 23.1949 15.5646Z" fill="#0A512F"/>
</svg>
