<svg width="55" height="40" viewBox="0 0 55 40" fill="none" xmlns="http://www.w3.org/2000/svg">
<path d="M30.25 23.1884H28.875V14.4203C28.875 13.9799 28.5673 13.6232 28.1875 13.6232H27.0205C26.6131 13.6232 26.2152 13.7627 25.8766 14.0247L24.5592 15.043C24.4841 15.101 24.4195 15.1756 24.3693 15.2626C24.319 15.3495 24.284 15.4471 24.2663 15.5497C24.2486 15.6523 24.2485 15.758 24.266 15.8606C24.2836 15.9633 24.3183 16.0609 24.3684 16.148L25.1316 17.4742C25.1816 17.5613 25.2459 17.6361 25.3209 17.6944C25.3959 17.7527 25.48 17.7932 25.5685 17.8138C25.6571 17.8343 25.7482 17.8344 25.8367 17.8141C25.9253 17.7938 26.0095 17.7535 26.0846 17.6954L26.125 17.6645V23.1884H24.75C24.3702 23.1884 24.0625 23.5451 24.0625 23.9855V25.5797C24.0625 26.0201 24.3702 26.3768 24.75 26.3768H30.25C30.6298 26.3768 30.9375 26.0201 30.9375 25.5797V23.9855C30.9375 23.5451 30.6298 23.1884 30.25 23.1884ZM52.25 0.869568H2.75C1.23148 0.869568 0 2.29738 0 4.05797V35.942C0 37.7026 1.23148 39.1304 2.75 39.1304H52.25C53.7685 39.1304 55 37.7026 55 35.942V4.05797C55 2.29738 53.7685 0.869568 52.25 0.869568ZM4.125 34.3478V27.971C7.16289 27.971 9.625 30.8256 9.625 34.3478H4.125ZM4.125 12.029V5.65218H9.625C9.625 9.17437 7.16289 12.029 4.125 12.029ZM27.5 31.1594C22.9436 31.1594 19.25 26.1626 19.25 20C19.25 13.8364 22.9436 8.84058 27.5 8.84058C32.0564 8.84058 35.75 13.8364 35.75 20C35.75 26.1646 32.0547 31.1594 27.5 31.1594ZM50.875 34.3478H45.375C45.375 30.8256 47.8371 27.971 50.875 27.971V34.3478ZM50.875 12.029C47.8371 12.029 45.375 9.17437 45.375 5.65218H50.875V12.029Z" fill="white"/>
</svg>
