<svg width="32" height="33" viewBox="0 0 32 33" fill="none" xmlns="http://www.w3.org/2000/svg">
<g clip-path="url(#clip0_29_744)">
<path d="M16.0001 3.16669C8.64008 3.16669 2.66675 9.14002 2.66675 16.5C2.66675 23.86 8.64008 29.8334 16.0001 29.8334C23.3601 29.8334 29.3334 23.86 29.3334 16.5C29.3334 9.14002 23.3601 3.16669 16.0001 3.16669ZM16.0001 7.16669C18.2134 7.16669 20.0001 8.95335 20.0001 11.1667C20.0001 13.38 18.2134 15.1667 16.0001 15.1667C13.7867 15.1667 12.0001 13.38 12.0001 11.1667C12.0001 8.95335 13.7867 7.16669 16.0001 7.16669ZM16.0001 26.1C12.6667 26.1 9.72008 24.3934 8.00008 21.8067C8.04008 19.1534 13.3334 17.7 16.0001 17.7C18.6534 17.7 23.9601 19.1534 24.0001 21.8067C22.2801 24.3934 19.3334 26.1 16.0001 26.1Z" fill="#0A512F"/>
</g>
<defs>
<clipPath id="clip0_29_744">
<rect width="32" height="32" fill="white" transform="translate(0 0.5)"/>
</clipPath>
</defs>
</svg>
