<svg width="43" height="34" viewBox="0 0 43 34" fill="none" xmlns="http://www.w3.org/2000/svg">
<path d="M15.05 17C19.8001 17 23.65 13.1949 23.65 8.5C23.65 3.80508 19.8001 0 15.05 0C10.2998 0 6.45 3.80508 6.45 8.5C6.45 13.1949 10.2998 17 15.05 17ZM21.07 19.125H19.948C18.4564 19.8023 16.7969 20.1875 15.05 20.1875C13.3031 20.1875 11.6503 19.8023 10.152 19.125H9.02999C4.04468 19.125 0 23.1227 0 28.05V30.8125C0 32.5723 1.44453 34 3.225 34H26.875C28.6555 34 30.1 32.5723 30.1 30.8125V28.05C30.1 23.1227 26.0553 19.125 21.07 19.125ZM42.7715 10.5984L40.9037 8.73242C40.5947 8.42031 40.0908 8.42031 39.775 8.72578L32.7337 15.632L29.6767 12.5906C29.3676 12.2785 28.8637 12.2785 28.548 12.584L26.66 14.4367C26.3442 14.7422 26.3442 15.2402 26.6533 15.5523L32.1425 21.0176C32.4515 21.3297 32.9554 21.3297 33.2712 21.0242L42.7648 11.7141C43.0739 11.402 43.0806 10.9039 42.7715 10.5984Z" fill="white"/>
</svg>
