<svg width="53" height="46" viewBox="0 0 53 46" fill="none" xmlns="http://www.w3.org/2000/svg">
<path d="M51.5277 20.125H48.8132C48.0034 18.3281 46.8256 16.7379 45.3717 15.4082L47.1109 8.625H44.1663C41.461 8.625 39.0686 9.83789 37.449 11.7066C36.7497 11.6078 36.0596 11.5 35.3326 11.5H23.5544C16.4322 11.5 10.4971 16.4414 9.12606 23H5.1509C3.78905 23 2.71244 21.7871 2.98849 20.4125C3.19093 19.3883 4.17552 18.6875 5.24292 18.6875H5.33494C5.6386 18.6875 5.88704 18.4449 5.88704 18.1484V16.3516C5.88704 16.0551 5.6386 15.8125 5.33494 15.8125C2.71244 15.8125 0.375197 17.6453 0.0439343 20.1789C-0.360943 23.2516 2.08672 25.875 5.1509 25.875H8.8316C8.8316 30.5648 11.1688 34.6887 14.7207 37.3121V44.5625C14.7207 45.3531 15.3833 46 16.193 46H22.0821C22.8919 46 23.5544 45.3531 23.5544 44.5625V40.25H35.3326V44.5625C35.3326 45.3531 35.9952 46 36.8049 46H42.694C43.5038 46 44.1663 45.3531 44.1663 44.5625V37.3121C45.2521 36.5125 46.2183 35.5691 47.0465 34.5H51.5277C52.3375 34.5 53 33.8531 53 33.0625V21.5625C53 20.7719 52.3375 20.125 51.5277 20.125ZM39.7495 25.875C38.9397 25.875 38.2772 25.2281 38.2772 24.4375C38.2772 23.6469 38.9397 23 39.7495 23C40.5592 23 41.2218 23.6469 41.2218 24.4375C41.2218 25.2281 40.5592 25.875 39.7495 25.875ZM23.5544 8.625H35.3326C35.8295 8.625 36.3172 8.66094 36.7957 8.69688C36.7957 8.66992 36.8049 8.65195 36.8049 8.625C36.8049 3.86328 32.8482 0 27.9712 0C23.0943 0 19.1376 3.86328 19.1376 8.625C19.1376 8.81367 19.1836 8.99336 19.1928 9.18203C20.5914 8.83164 22.0453 8.625 23.5544 8.625Z" fill="white"/>
</svg>
